<svg width="2088" height="136" viewBox="0 0 2088 136" fill="none" xmlns="http://www.w3.org/2000/svg">
<path d="M8.704 115V24.632H28.8V115H8.704ZM64.64 115V24.632H84.864V115H64.64ZM20.736 77.24V59.832H71.296V77.24H20.736ZM130.364 116.408C123.964 116.408 118.161 115 112.956 112.184C107.836 109.283 103.783 105.357 100.796 100.408C97.8093 95.4587 96.316 89.912 96.316 83.768C96.316 77.624 97.8093 72.12 100.796 67.256C103.783 62.392 107.836 58.552 112.956 55.736C118.076 52.8347 123.879 51.384 130.364 51.384C136.849 51.384 142.652 52.792 147.772 55.608C152.892 58.424 156.945 62.3067 159.932 67.256C162.919 72.12 164.412 77.624 164.412 83.768C164.412 89.912 162.919 95.4587 159.932 100.408C156.945 105.357 152.892 109.283 147.772 112.184C142.652 115 136.849 116.408 130.364 116.408ZM130.364 98.616C133.18 98.616 135.655 98.0187 137.788 96.824C139.921 95.544 141.543 93.7947 142.652 91.576C143.847 89.272 144.444 86.6693 144.444 83.768C144.444 80.8667 143.847 78.3493 142.652 76.216C141.457 73.9973 139.793 72.2907 137.66 71.096C135.612 69.816 133.18 69.176 130.364 69.176C127.633 69.176 125.201 69.816 123.068 71.096C120.935 72.2907 119.271 73.9973 118.076 76.216C116.881 78.4347 116.284 80.9947 116.284 83.896C116.284 86.712 116.881 89.272 118.076 91.576C119.271 93.7947 120.935 95.544 123.068 96.824C125.201 98.0187 127.633 98.616 130.364 98.616ZM188.144 115L166.64 52.792H185.84L199.152 97.976L193.52 98.104L208.24 52.792H224.112L238.96 98.104L233.2 97.976L246.64 52.792H265.84L244.336 115H228.336L213.872 71.992H218.736L204.016 115H188.144ZM314.939 115V99.384H336.187C340.112 99.384 343.184 98.232 345.403 95.928C347.622 93.624 348.731 90.808 348.731 87.48C348.731 85.176 348.219 83.128 347.195 81.336C346.171 79.544 344.72 78.136 342.843 77.112C341.051 76.088 338.832 75.576 336.187 75.576H314.939V60.344H334.523C337.851 60.344 340.539 59.5333 342.587 57.912C344.635 56.2053 345.659 53.6453 345.659 50.232C345.659 46.904 344.635 44.4293 342.587 42.808C340.539 41.1013 337.851 40.248 334.523 40.248H314.939V24.632H338.363C344.166 24.632 349.072 25.6987 353.083 27.832C357.179 29.9653 360.294 32.824 362.427 36.408C364.56 39.992 365.627 43.96 365.627 48.312C365.627 53.8587 363.835 58.552 360.251 62.392C356.667 66.232 351.376 68.8773 344.379 70.328L344.891 63.544C352.486 64.9947 358.331 67.9387 362.427 72.376C366.608 76.8133 368.699 82.2747 368.699 88.76C368.699 93.7093 367.462 98.1893 364.987 102.2C362.598 106.125 359.099 109.24 354.491 111.544C349.968 113.848 344.507 115 338.107 115H314.939ZM299.579 115V24.632H319.419V115H299.579ZM407.435 116.408C401.718 116.408 396.64 115.256 392.203 112.952C387.851 110.563 384.438 107.32 381.963 103.224C379.488 99.0427 378.251 94.264 378.251 88.888V52.792H397.835V88.632C397.835 90.7653 398.176 92.6 398.859 94.136C399.627 95.672 400.736 96.8667 402.187 97.72C403.638 98.5733 405.387 99 407.435 99C410.336 99 412.64 98.104 414.347 96.312C416.054 94.4347 416.907 91.8747 416.907 88.632V52.792H436.491V88.76C436.491 94.2213 435.254 99.0427 432.779 103.224C430.304 107.32 426.891 110.563 422.539 112.952C418.187 115.256 413.152 116.408 407.435 116.408ZM475.283 116.28C469.395 116.28 464.147 114.872 459.539 112.056C455.016 109.24 451.432 105.4 448.787 100.536C446.227 95.672 444.947 90.1253 444.947 83.896C444.947 77.6667 446.227 72.12 448.787 67.256C451.432 62.392 455.016 58.552 459.539 55.736C464.147 52.92 469.395 51.512 475.283 51.512C479.55 51.512 483.39 52.3227 486.803 53.944C490.302 55.5653 493.16 57.8267 495.379 60.728C497.683 63.544 498.963 66.7867 499.219 70.456V96.696C498.963 100.365 497.726 103.693 495.507 106.68C493.288 109.581 490.43 111.928 486.931 113.72C483.432 115.427 479.55 116.28 475.283 116.28ZM478.739 98.616C481.555 98.616 483.987 98.0187 486.035 96.824C488.083 95.544 489.704 93.7947 490.899 91.576C492.094 89.3573 492.691 86.7973 492.691 83.896C492.691 80.9947 492.094 78.4773 490.899 76.344C489.79 74.1253 488.168 72.376 486.035 71.096C483.987 69.816 481.598 69.176 478.867 69.176C476.136 69.176 473.704 69.816 471.571 71.096C469.523 72.376 467.859 74.1253 466.579 76.344C465.384 78.5627 464.787 81.08 464.787 83.896C464.787 86.712 465.384 89.2293 466.579 91.448C467.774 93.6667 469.438 95.416 471.571 96.696C473.704 97.976 476.094 98.616 478.739 98.616ZM511.123 115H491.923V98.232L494.867 83.128L491.539 68.024V22.072H511.123V115ZM547.568 116.536C543.899 116.536 540.272 116.067 536.688 115.128C533.189 114.189 529.904 112.867 526.832 111.16C523.845 109.368 521.285 107.32 519.152 105.016L530.288 93.752C532.336 95.9707 534.768 97.72 537.584 99C540.4 100.195 543.472 100.792 546.8 100.792C549.104 100.792 550.853 100.451 552.048 99.768C553.328 99.0853 553.968 98.1467 553.968 96.952C553.968 95.416 553.2 94.264 551.664 93.496C550.213 92.6427 548.336 91.9173 546.032 91.32C543.728 90.6373 541.296 89.912 538.736 89.144C536.176 88.376 533.744 87.3093 531.44 85.944C529.136 84.5787 527.259 82.7013 525.808 80.312C524.357 77.8373 523.632 74.7227 523.632 70.968C523.632 66.9573 524.656 63.5013 526.704 60.6C528.752 57.6133 531.653 55.2667 535.408 53.56C539.163 51.8533 543.557 51 548.592 51C553.883 51 558.747 51.9387 563.184 53.816C567.707 55.608 571.376 58.296 574.192 61.88L563.056 73.144C561.093 70.84 558.875 69.2187 556.4 68.28C554.011 67.3413 551.664 66.872 549.36 66.872C547.141 66.872 545.477 67.2133 544.368 67.896C543.259 68.4933 542.704 69.3893 542.704 70.584C542.704 71.864 543.429 72.888 544.88 73.656C546.331 74.424 548.208 75.1067 550.512 75.704C552.816 76.3013 555.248 77.0267 557.808 77.88C560.368 78.7333 562.8 79.8853 565.104 81.336C567.408 82.7867 569.285 84.7493 570.736 87.224C572.187 89.6133 572.912 92.7707 572.912 96.696C572.912 102.755 570.608 107.576 566 111.16C561.477 114.744 555.333 116.536 547.568 116.536ZM606.193 116.536C602.524 116.536 598.897 116.067 595.313 115.128C591.814 114.189 588.529 112.867 585.457 111.16C582.47 109.368 579.91 107.32 577.777 105.016L588.913 93.752C590.961 95.9707 593.393 97.72 596.209 99C599.025 100.195 602.097 100.792 605.425 100.792C607.729 100.792 609.478 100.451 610.673 99.768C611.953 99.0853 612.593 98.1467 612.593 96.952C612.593 95.416 611.825 94.264 610.289 93.496C608.838 92.6427 606.961 91.9173 604.657 91.32C602.353 90.6373 599.921 89.912 597.361 89.144C594.801 88.376 592.369 87.3093 590.065 85.944C587.761 84.5787 585.884 82.7013 584.433 80.312C582.982 77.8373 582.257 74.7227 582.257 70.968C582.257 66.9573 583.281 63.5013 585.329 60.6C587.377 57.6133 590.278 55.2667 594.033 53.56C597.788 51.8533 602.182 51 607.217 51C612.508 51 617.372 51.9387 621.809 53.816C626.332 55.608 630.001 58.296 632.817 61.88L621.681 73.144C619.718 70.84 617.5 69.2187 615.025 68.28C612.636 67.3413 610.289 66.872 607.985 66.872C605.766 66.872 604.102 67.2133 602.993 67.896C601.884 68.4933 601.329 69.3893 601.329 70.584C601.329 71.864 602.054 72.888 603.505 73.656C604.956 74.424 606.833 75.1067 609.137 75.704C611.441 76.3013 613.873 77.0267 616.433 77.88C618.993 78.7333 621.425 79.8853 623.729 81.336C626.033 82.7867 627.91 84.7493 629.361 87.224C630.812 89.6133 631.537 92.7707 631.537 96.696C631.537 102.755 629.233 107.576 624.625 111.16C620.102 114.744 613.958 116.536 606.193 116.536ZM690.857 115L661.801 24.632H681.769L703.017 94.136H695.209L715.945 24.632H731.689L752.425 94.136H744.745L765.865 24.632H785.705L756.649 115H740.905L720.041 45.496H727.465L706.601 115H690.857ZM816.739 116.408C810.339 116.408 804.536 115 799.331 112.184C794.211 109.283 790.158 105.357 787.171 100.408C784.184 95.4587 782.691 89.912 782.691 83.768C782.691 77.624 784.184 72.12 787.171 67.256C790.158 62.392 794.211 58.552 799.331 55.736C804.451 52.8347 810.254 51.384 816.739 51.384C823.224 51.384 829.027 52.792 834.147 55.608C839.267 58.424 843.32 62.3067 846.307 67.256C849.294 72.12 850.787 77.624 850.787 83.768C850.787 89.912 849.294 95.4587 846.307 100.408C843.32 105.357 839.267 109.283 834.147 112.184C829.027 115 823.224 116.408 816.739 116.408ZM816.739 98.616C819.555 98.616 822.03 98.0187 824.163 96.824C826.296 95.544 827.918 93.7947 829.027 91.576C830.222 89.272 830.819 86.6693 830.819 83.768C830.819 80.8667 830.222 78.3493 829.027 76.216C827.832 73.9973 826.168 72.2907 824.035 71.096C821.987 69.816 819.555 69.176 816.739 69.176C814.008 69.176 811.576 69.816 809.443 71.096C807.31 72.2907 805.646 73.9973 804.451 76.216C803.256 78.4347 802.659 80.9947 802.659 83.896C802.659 86.712 803.256 89.272 804.451 91.576C805.646 93.7947 807.31 95.544 809.443 96.824C811.576 98.0187 814.008 98.616 816.739 98.616ZM860.537 115V52.792H880.121V115H860.537ZM880.121 80.824L871.929 74.424C873.55 67.1707 876.281 61.5387 880.121 57.528C883.961 53.5173 889.294 51.512 896.121 51.512C899.108 51.512 901.71 51.9813 903.929 52.92C906.233 53.7733 908.238 55.1387 909.945 57.016L898.297 71.736C897.444 70.7973 896.377 70.072 895.097 69.56C893.817 69.048 892.366 68.792 890.745 68.792C887.502 68.792 884.9 69.816 882.937 71.864C881.06 73.8267 880.121 76.8133 880.121 80.824ZM954.97 115L933.21 82.744L954.842 52.792H976.73L950.618 86.456L951.258 78.392L978.01 115H954.97ZM915.162 115V22.072H934.746V115H915.162ZM1004.07 116.536C1000.4 116.536 996.772 116.067 993.188 115.128C989.689 114.189 986.404 112.867 983.332 111.16C980.345 109.368 977.785 107.32 975.652 105.016L986.788 93.752C988.836 95.9707 991.268 97.72 994.084 99C996.9 100.195 999.972 100.792 1003.3 100.792C1005.6 100.792 1007.35 100.451 1008.55 99.768C1009.83 99.0853 1010.47 98.1467 1010.47 96.952C1010.47 95.416 1009.7 94.264 1008.16 93.496C1006.71 92.6427 1004.84 91.9173 1002.53 91.32C1000.23 90.6373 997.796 89.912 995.236 89.144C992.676 88.376 990.244 87.3093 987.94 85.944C985.636 84.5787 983.759 82.7013 982.308 80.312C980.857 77.8373 980.132 74.7227 980.132 70.968C980.132 66.9573 981.156 63.5013 983.204 60.6C985.252 57.6133 988.153 55.2667 991.908 53.56C995.663 51.8533 1000.06 51 1005.09 51C1010.38 51 1015.25 51.9387 1019.68 53.816C1024.21 55.608 1027.88 58.296 1030.69 61.88L1019.56 73.144C1017.59 70.84 1015.37 69.2187 1012.9 68.28C1010.51 67.3413 1008.16 66.872 1005.86 66.872C1003.64 66.872 1001.98 67.2133 1000.87 67.896C999.759 68.4933 999.204 69.3893 999.204 70.584C999.204 71.864 999.929 72.888 1001.38 73.656C1002.83 74.424 1004.71 75.1067 1007.01 75.704C1009.32 76.3013 1011.75 77.0267 1014.31 77.88C1016.87 78.7333 1019.3 79.8853 1021.6 81.336C1023.91 82.7867 1025.79 84.7493 1027.24 87.224C1028.69 89.6133 1029.41 92.7707 1029.41 96.696C1029.41 102.755 1027.11 107.576 1022.5 111.16C1017.98 114.744 1011.83 116.536 1004.07 116.536Z" fill="#2FDBBC"/>
<mask id="path-2-outside-1_26038_2400" maskUnits="userSpaceOnUse" x="1061" y="21" width="1026" height="97" fill="black">
<rect fill="white" x="1061" y="21" width="1026" height="97"/>
<path d="M1062.7 115V24.632H1082.8V115H1062.7ZM1118.64 115V24.632H1138.86V115H1118.64ZM1074.74 77.24V59.832H1125.3V77.24H1074.74ZM1184.36 116.408C1177.96 116.408 1172.16 115 1166.96 112.184C1161.84 109.283 1157.78 105.357 1154.8 100.408C1151.81 95.4587 1150.32 89.912 1150.32 83.768C1150.32 77.624 1151.81 72.12 1154.8 67.256C1157.78 62.392 1161.84 58.552 1166.96 55.736C1172.08 52.8347 1177.88 51.384 1184.36 51.384C1190.85 51.384 1196.65 52.792 1201.77 55.608C1206.89 58.424 1210.95 62.3067 1213.93 67.256C1216.92 72.12 1218.41 77.624 1218.41 83.768C1218.41 89.912 1216.92 95.4587 1213.93 100.408C1210.95 105.357 1206.89 109.283 1201.77 112.184C1196.65 115 1190.85 116.408 1184.36 116.408ZM1184.36 98.616C1187.18 98.616 1189.65 98.0187 1191.79 96.824C1193.92 95.544 1195.54 93.7947 1196.65 91.576C1197.85 89.272 1198.44 86.6693 1198.44 83.768C1198.44 80.8667 1197.85 78.3493 1196.65 76.216C1195.46 73.9973 1193.79 72.2907 1191.66 71.096C1189.61 69.816 1187.18 69.176 1184.36 69.176C1181.63 69.176 1179.2 69.816 1177.07 71.096C1174.93 72.2907 1173.27 73.9973 1172.08 76.216C1170.88 78.4347 1170.28 80.9947 1170.28 83.896C1170.28 86.712 1170.88 89.272 1172.08 91.576C1173.27 93.7947 1174.93 95.544 1177.07 96.824C1179.2 98.0187 1181.63 98.616 1184.36 98.616ZM1242.14 115L1220.64 52.792H1239.84L1253.15 97.976L1247.52 98.104L1262.24 52.792H1278.11L1292.96 98.104L1287.2 97.976L1300.64 52.792H1319.84L1298.34 115H1282.34L1267.87 71.992H1272.74L1258.02 115H1242.14ZM1368.94 115V99.384H1390.19C1394.11 99.384 1397.18 98.232 1399.4 95.928C1401.62 93.624 1402.73 90.808 1402.73 87.48C1402.73 85.176 1402.22 83.128 1401.2 81.336C1400.17 79.544 1398.72 78.136 1396.84 77.112C1395.05 76.088 1392.83 75.576 1390.19 75.576H1368.94V60.344H1388.52C1391.85 60.344 1394.54 59.5333 1396.59 57.912C1398.64 56.2053 1399.66 53.6453 1399.66 50.232C1399.66 46.904 1398.64 44.4293 1396.59 42.808C1394.54 41.1013 1391.85 40.248 1388.52 40.248H1368.94V24.632H1392.36C1398.17 24.632 1403.07 25.6987 1407.08 27.832C1411.18 29.9653 1414.29 32.824 1416.43 36.408C1418.56 39.992 1419.63 43.96 1419.63 48.312C1419.63 53.8587 1417.84 58.552 1414.25 62.392C1410.67 66.232 1405.38 68.8773 1398.38 70.328L1398.89 63.544C1406.49 64.9947 1412.33 67.9387 1416.43 72.376C1420.61 76.8133 1422.7 82.2747 1422.7 88.76C1422.7 93.7093 1421.46 98.1893 1418.99 102.2C1416.6 106.125 1413.1 109.24 1408.49 111.544C1403.97 113.848 1398.51 115 1392.11 115H1368.94ZM1353.58 115V24.632H1373.42V115H1353.58ZM1461.44 116.408C1455.72 116.408 1450.64 115.256 1446.2 112.952C1441.85 110.563 1438.44 107.32 1435.96 103.224C1433.49 99.0427 1432.25 94.264 1432.25 88.888V52.792H1451.84V88.632C1451.84 90.7653 1452.18 92.6 1452.86 94.136C1453.63 95.672 1454.74 96.8667 1456.19 97.72C1457.64 98.5733 1459.39 99 1461.44 99C1464.34 99 1466.64 98.104 1468.35 96.312C1470.05 94.4347 1470.91 91.8747 1470.91 88.632V52.792H1490.49V88.76C1490.49 94.2213 1489.25 99.0427 1486.78 103.224C1484.3 107.32 1480.89 110.563 1476.54 112.952C1472.19 115.256 1467.15 116.408 1461.44 116.408ZM1529.28 116.28C1523.4 116.28 1518.15 114.872 1513.54 112.056C1509.02 109.24 1505.43 105.4 1502.79 100.536C1500.23 95.672 1498.95 90.1253 1498.95 83.896C1498.95 77.6667 1500.23 72.12 1502.79 67.256C1505.43 62.392 1509.02 58.552 1513.54 55.736C1518.15 52.92 1523.4 51.512 1529.28 51.512C1533.55 51.512 1537.39 52.3227 1540.8 53.944C1544.3 55.5653 1547.16 57.8267 1549.38 60.728C1551.68 63.544 1552.96 66.7867 1553.22 70.456V96.696C1552.96 100.365 1551.73 103.693 1549.51 106.68C1547.29 109.581 1544.43 111.928 1540.93 113.72C1537.43 115.427 1533.55 116.28 1529.28 116.28ZM1532.74 98.616C1535.56 98.616 1537.99 98.0187 1540.04 96.824C1542.08 95.544 1543.7 93.7947 1544.9 91.576C1546.09 89.3573 1546.69 86.7973 1546.69 83.896C1546.69 80.9947 1546.09 78.4773 1544.9 76.344C1543.79 74.1253 1542.17 72.376 1540.04 71.096C1537.99 69.816 1535.6 69.176 1532.87 69.176C1530.14 69.176 1527.7 69.816 1525.57 71.096C1523.52 72.376 1521.86 74.1253 1520.58 76.344C1519.38 78.5627 1518.79 81.08 1518.79 83.896C1518.79 86.712 1519.38 89.2293 1520.58 91.448C1521.77 93.6667 1523.44 95.416 1525.57 96.696C1527.7 97.976 1530.09 98.616 1532.74 98.616ZM1565.12 115H1545.92V98.232L1548.87 83.128L1545.54 68.024V22.072H1565.12V115ZM1601.57 116.536C1597.9 116.536 1594.27 116.067 1590.69 115.128C1587.19 114.189 1583.9 112.867 1580.83 111.16C1577.85 109.368 1575.29 107.32 1573.15 105.016L1584.29 93.752C1586.34 95.9707 1588.77 97.72 1591.58 99C1594.4 100.195 1597.47 100.792 1600.8 100.792C1603.1 100.792 1604.85 100.451 1606.05 99.768C1607.33 99.0853 1607.97 98.1467 1607.97 96.952C1607.97 95.416 1607.2 94.264 1605.66 93.496C1604.21 92.6427 1602.34 91.9173 1600.03 91.32C1597.73 90.6373 1595.3 89.912 1592.74 89.144C1590.18 88.376 1587.74 87.3093 1585.44 85.944C1583.14 84.5787 1581.26 82.7013 1579.81 80.312C1578.36 77.8373 1577.63 74.7227 1577.63 70.968C1577.63 66.9573 1578.66 63.5013 1580.7 60.6C1582.75 57.6133 1585.65 55.2667 1589.41 53.56C1593.16 51.8533 1597.56 51 1602.59 51C1607.88 51 1612.75 51.9387 1617.18 53.816C1621.71 55.608 1625.38 58.296 1628.19 61.88L1617.06 73.144C1615.09 70.84 1612.87 69.2187 1610.4 68.28C1608.01 67.3413 1605.66 66.872 1603.36 66.872C1601.14 66.872 1599.48 67.2133 1598.37 67.896C1597.26 68.4933 1596.7 69.3893 1596.7 70.584C1596.7 71.864 1597.43 72.888 1598.88 73.656C1600.33 74.424 1602.21 75.1067 1604.51 75.704C1606.82 76.3013 1609.25 77.0267 1611.81 77.88C1614.37 78.7333 1616.8 79.8853 1619.1 81.336C1621.41 82.7867 1623.29 84.7493 1624.74 87.224C1626.19 89.6133 1626.91 92.7707 1626.91 96.696C1626.91 102.755 1624.61 107.576 1620 111.16C1615.48 114.744 1609.33 116.536 1601.57 116.536ZM1660.19 116.536C1656.52 116.536 1652.9 116.067 1649.31 115.128C1645.81 114.189 1642.53 112.867 1639.46 111.16C1636.47 109.368 1633.91 107.32 1631.78 105.016L1642.91 93.752C1644.96 95.9707 1647.39 97.72 1650.21 99C1653.03 100.195 1656.1 100.792 1659.43 100.792C1661.73 100.792 1663.48 100.451 1664.67 99.768C1665.95 99.0853 1666.59 98.1467 1666.59 96.952C1666.59 95.416 1665.83 94.264 1664.29 93.496C1662.84 92.6427 1660.96 91.9173 1658.66 91.32C1656.35 90.6373 1653.92 89.912 1651.36 89.144C1648.8 88.376 1646.37 87.3093 1644.07 85.944C1641.76 84.5787 1639.88 82.7013 1638.43 80.312C1636.98 77.8373 1636.26 74.7227 1636.26 70.968C1636.26 66.9573 1637.28 63.5013 1639.33 60.6C1641.38 57.6133 1644.28 55.2667 1648.03 53.56C1651.79 51.8533 1656.18 51 1661.22 51C1666.51 51 1671.37 51.9387 1675.81 53.816C1680.33 55.608 1684 58.296 1686.82 61.88L1675.68 73.144C1673.72 70.84 1671.5 69.2187 1669.03 68.28C1666.64 67.3413 1664.29 66.872 1661.99 66.872C1659.77 66.872 1658.1 67.2133 1656.99 67.896C1655.88 68.4933 1655.33 69.3893 1655.33 70.584C1655.33 71.864 1656.05 72.888 1657.51 73.656C1658.96 74.424 1660.83 75.1067 1663.14 75.704C1665.44 76.3013 1667.87 77.0267 1670.43 77.88C1672.99 78.7333 1675.43 79.8853 1677.73 81.336C1680.03 82.7867 1681.91 84.7493 1683.36 87.224C1684.81 89.6133 1685.54 92.7707 1685.54 96.696C1685.54 102.755 1683.23 107.576 1678.63 111.16C1674.1 114.744 1667.96 116.536 1660.19 116.536ZM1744.86 115L1715.8 24.632H1735.77L1757.02 94.136H1749.21L1769.95 24.632H1785.69L1806.43 94.136H1798.75L1819.87 24.632H1839.71L1810.65 115H1794.91L1774.04 45.496H1781.47L1760.6 115H1744.86ZM1870.74 116.408C1864.34 116.408 1858.54 115 1853.33 112.184C1848.21 109.283 1844.16 105.357 1841.17 100.408C1838.18 95.4587 1836.69 89.912 1836.69 83.768C1836.69 77.624 1838.18 72.12 1841.17 67.256C1844.16 62.392 1848.21 58.552 1853.33 55.736C1858.45 52.8347 1864.25 51.384 1870.74 51.384C1877.22 51.384 1883.03 52.792 1888.15 55.608C1893.27 58.424 1897.32 62.3067 1900.31 67.256C1903.29 72.12 1904.79 77.624 1904.79 83.768C1904.79 89.912 1903.29 95.4587 1900.31 100.408C1897.32 105.357 1893.27 109.283 1888.15 112.184C1883.03 115 1877.22 116.408 1870.74 116.408ZM1870.74 98.616C1873.56 98.616 1876.03 98.0187 1878.16 96.824C1880.3 95.544 1881.92 93.7947 1883.03 91.576C1884.22 89.272 1884.82 86.6693 1884.82 83.768C1884.82 80.8667 1884.22 78.3493 1883.03 76.216C1881.83 73.9973 1880.17 72.2907 1878.04 71.096C1875.99 69.816 1873.56 69.176 1870.74 69.176C1868.01 69.176 1865.58 69.816 1863.44 71.096C1861.31 72.2907 1859.65 73.9973 1858.45 76.216C1857.26 78.4347 1856.66 80.9947 1856.66 83.896C1856.66 86.712 1857.26 89.272 1858.45 91.576C1859.65 93.7947 1861.31 95.544 1863.44 96.824C1865.58 98.0187 1868.01 98.616 1870.74 98.616ZM1914.54 115V52.792H1934.12V115H1914.54ZM1934.12 80.824L1925.93 74.424C1927.55 67.1707 1930.28 61.5387 1934.12 57.528C1937.96 53.5173 1943.29 51.512 1950.12 51.512C1953.11 51.512 1955.71 51.9813 1957.93 52.92C1960.23 53.7733 1962.24 55.1387 1963.95 57.016L1952.3 71.736C1951.44 70.7973 1950.38 70.072 1949.1 69.56C1947.82 69.048 1946.37 68.792 1944.75 68.792C1941.5 68.792 1938.9 69.816 1936.94 71.864C1935.06 73.8267 1934.12 76.8133 1934.12 80.824ZM2008.97 115L1987.21 82.744L2008.84 52.792H2030.73L2004.62 86.456L2005.26 78.392L2032.01 115H2008.97ZM1969.16 115V22.072H1988.75V115H1969.16ZM2058.07 116.536C2054.4 116.536 2050.77 116.067 2047.19 115.128C2043.69 114.189 2040.4 112.867 2037.33 111.16C2034.35 109.368 2031.79 107.32 2029.65 105.016L2040.79 93.752C2042.84 95.9707 2045.27 97.72 2048.08 99C2050.9 100.195 2053.97 100.792 2057.3 100.792C2059.6 100.792 2061.35 100.451 2062.55 99.768C2063.83 99.0853 2064.47 98.1467 2064.47 96.952C2064.47 95.416 2063.7 94.264 2062.16 93.496C2060.71 92.6427 2058.84 91.9173 2056.53 91.32C2054.23 90.6373 2051.8 89.912 2049.24 89.144C2046.68 88.376 2044.24 87.3093 2041.94 85.944C2039.64 84.5787 2037.76 82.7013 2036.31 80.312C2034.86 77.8373 2034.13 74.7227 2034.13 70.968C2034.13 66.9573 2035.16 63.5013 2037.2 60.6C2039.25 57.6133 2042.15 55.2667 2045.91 53.56C2049.66 51.8533 2054.06 51 2059.09 51C2064.38 51 2069.25 51.9387 2073.68 53.816C2078.21 55.608 2081.88 58.296 2084.69 61.88L2073.56 73.144C2071.59 70.84 2069.37 69.2187 2066.9 68.28C2064.51 67.3413 2062.16 66.872 2059.86 66.872C2057.64 66.872 2055.98 67.2133 2054.87 67.896C2053.76 68.4933 2053.2 69.3893 2053.2 70.584C2053.2 71.864 2053.93 72.888 2055.38 73.656C2056.83 74.424 2058.71 75.1067 2061.01 75.704C2063.32 76.3013 2065.75 77.0267 2068.31 77.88C2070.87 78.7333 2073.3 79.8853 2075.6 81.336C2077.91 82.7867 2079.79 84.7493 2081.24 87.224C2082.69 89.6133 2083.41 92.7707 2083.41 96.696C2083.41 102.755 2081.11 107.576 2076.5 111.16C2071.98 114.744 2065.83 116.536 2058.07 116.536Z"/>
</mask>
<path d="M1062.7 115H1061.7V116H1062.7V115ZM1062.7 24.632V23.632H1061.7V24.632H1062.7ZM1082.8 24.632H1083.8V23.632H1082.8V24.632ZM1082.8 115V116H1083.8V115H1082.8ZM1118.64 115H1117.64V116H1118.64V115ZM1118.64 24.632V23.632H1117.64V24.632H1118.64ZM1138.86 24.632H1139.86V23.632H1138.86V24.632ZM1138.86 115V116H1139.86V115H1138.86ZM1074.74 77.24H1073.74V78.24H1074.74V77.24ZM1074.74 59.832V58.832H1073.74V59.832H1074.74ZM1125.3 59.832H1126.3V58.832H1125.3V59.832ZM1125.3 77.24V78.24H1126.3V77.24H1125.3ZM1063.7 115V24.632H1061.7V115H1063.7ZM1062.7 25.632H1082.8V23.632H1062.7V25.632ZM1081.8 24.632V115H1083.8V24.632H1081.8ZM1082.8 114H1062.7V116H1082.8V114ZM1119.64 115V24.632H1117.64V115H1119.64ZM1118.64 25.632H1138.86V23.632H1118.64V25.632ZM1137.86 24.632V115H1139.86V24.632H1137.86ZM1138.86 114H1118.64V116H1138.86V114ZM1075.74 77.24V59.832H1073.74V77.24H1075.74ZM1074.74 60.832H1125.3V58.832H1074.74V60.832ZM1124.3 59.832V77.24H1126.3V59.832H1124.3ZM1125.3 76.24H1074.74V78.24H1125.3V76.24ZM1166.96 112.184L1166.46 113.054L1166.47 113.059L1166.48 113.064L1166.96 112.184ZM1154.8 100.408L1155.65 99.8913L1155.65 99.8913L1154.8 100.408ZM1154.8 67.256L1153.94 66.7327L1153.94 66.7327L1154.8 67.256ZM1166.96 55.736L1167.44 56.6123L1167.45 56.606L1166.96 55.736ZM1213.93 67.256L1213.08 67.7727L1213.08 67.7793L1213.93 67.256ZM1213.93 100.408L1214.79 100.925L1214.79 100.925L1213.93 100.408ZM1201.77 112.184L1202.25 113.06L1202.27 113.054L1201.77 112.184ZM1191.79 96.824L1192.28 97.6965L1192.29 97.6892L1192.3 97.6815L1191.79 96.824ZM1196.65 91.576L1195.76 91.1157L1195.76 91.1222L1195.76 91.1288L1196.65 91.576ZM1196.65 76.216L1195.77 76.6901L1195.78 76.6974L1195.78 76.7046L1196.65 76.216ZM1191.66 71.096L1191.13 71.944L1191.15 71.9567L1191.17 71.9685L1191.66 71.096ZM1177.07 71.096L1177.56 71.9685L1177.57 71.9612L1177.58 71.9535L1177.07 71.096ZM1172.08 76.216L1172.96 76.6901L1172.96 76.6901L1172.08 76.216ZM1172.08 91.576L1171.19 92.0363L1171.19 92.0432L1171.2 92.0501L1172.08 91.576ZM1177.07 96.824L1176.55 97.6815L1176.57 97.6892L1176.58 97.6965L1177.07 96.824ZM1184.36 115.408C1178.12 115.408 1172.48 114.035 1167.43 111.304L1166.48 113.064C1171.84 115.965 1177.81 117.408 1184.36 117.408V115.408ZM1167.45 111.314C1162.48 108.496 1158.55 104.691 1155.65 99.8913L1153.94 100.925C1157.02 106.024 1161.2 110.07 1166.46 113.054L1167.45 111.314ZM1155.65 99.8913C1152.77 95.1078 1151.32 89.7418 1151.32 83.768H1149.32C1149.32 90.0822 1150.85 95.8095 1153.94 100.925L1155.65 99.8913ZM1151.32 83.768C1151.32 77.7941 1152.77 72.4738 1155.65 67.7793L1153.94 66.7327C1150.85 71.7662 1149.32 77.4539 1149.32 83.768H1151.32ZM1155.65 67.7793C1158.54 63.0666 1162.47 59.3467 1167.44 56.6122L1166.47 54.8598C1161.21 57.7573 1157.02 61.7173 1153.94 66.7327L1155.65 67.7793ZM1167.45 56.606C1172.4 53.7984 1178.03 52.384 1184.36 52.384V50.384C1177.72 50.384 1171.75 51.871 1166.46 54.866L1167.45 56.606ZM1184.36 52.384C1190.7 52.384 1196.33 53.7581 1201.29 56.4842L1202.25 54.7318C1196.97 51.8259 1191 50.384 1184.36 50.384V52.384ZM1201.29 56.4842C1206.26 59.2164 1210.18 62.9757 1213.08 67.7727L1214.79 66.7393C1211.71 61.6376 1207.53 57.6316 1202.25 54.7318L1201.29 56.4842ZM1213.08 67.7793C1215.96 72.4738 1217.41 77.7941 1217.41 83.768H1219.41C1219.41 77.4539 1217.87 71.7662 1214.78 66.7327L1213.08 67.7793ZM1217.41 83.768C1217.41 89.7418 1215.96 95.1078 1213.08 99.8913L1214.79 100.925C1217.87 95.8095 1219.41 90.0822 1219.41 83.768H1217.41ZM1213.08 99.8913C1210.18 104.691 1206.25 108.496 1201.28 111.314L1202.27 113.054C1207.53 110.07 1211.71 106.024 1214.79 100.925L1213.08 99.8913ZM1201.29 111.308C1196.33 114.034 1190.7 115.408 1184.36 115.408V117.408C1191 117.408 1196.97 115.966 1202.25 113.06L1201.29 111.308ZM1184.36 99.616C1187.32 99.616 1189.97 98.9867 1192.28 97.6965L1191.3 95.9515C1189.34 97.0506 1187.04 97.616 1184.36 97.616V99.616ZM1192.3 97.6815C1194.6 96.304 1196.35 94.4125 1197.55 92.0232L1195.76 91.1288C1194.73 93.1768 1193.24 94.784 1191.27 95.9665L1192.3 97.6815ZM1197.54 92.0363C1198.82 89.574 1199.44 86.8104 1199.44 83.768H1197.44C1197.44 86.5283 1196.88 88.97 1195.76 91.1157L1197.54 92.0363ZM1199.44 83.768C1199.44 80.7276 1198.82 78.0356 1197.52 75.7274L1195.78 76.7046C1196.88 78.663 1197.44 81.0058 1197.44 83.768H1199.44ZM1197.53 75.7419C1196.25 73.3613 1194.45 71.514 1192.15 70.2235L1191.17 71.9685C1193.13 73.0674 1194.66 74.6334 1195.77 76.6901L1197.53 75.7419ZM1192.19 70.248C1189.96 68.8531 1187.34 68.176 1184.36 68.176V70.176C1187.02 70.176 1189.27 70.7789 1191.13 71.944L1192.19 70.248ZM1184.36 68.176C1181.47 68.176 1178.86 68.8563 1176.55 70.2385L1177.58 71.9535C1179.55 70.7757 1181.8 70.176 1184.36 70.176V68.176ZM1176.58 70.2235C1174.27 71.514 1172.48 73.3613 1171.2 75.7419L1172.96 76.6901C1174.06 74.6334 1175.59 73.0674 1177.56 71.9685L1176.58 70.2235ZM1171.2 75.7419C1169.91 78.127 1169.28 80.8544 1169.28 83.896H1171.28C1171.28 81.1349 1171.85 78.7423 1172.96 76.6901L1171.2 75.7419ZM1169.28 83.896C1169.28 86.8583 1169.91 89.5782 1171.19 92.0363L1172.96 91.1157C1171.85 88.9658 1171.28 86.5657 1171.28 83.896H1169.28ZM1171.2 92.0501C1172.47 94.425 1174.26 96.3077 1176.55 97.6815L1177.58 95.9665C1175.61 94.7803 1174.07 93.1643 1172.96 91.1019L1171.2 92.0501ZM1176.58 97.6965C1178.88 98.9842 1181.48 99.616 1184.36 99.616V97.616C1181.78 97.616 1179.52 97.0531 1177.56 95.9515L1176.58 97.6965ZM1242.14 115L1241.2 115.327L1241.43 116H1242.14V115ZM1220.64 52.792V51.792H1219.24L1219.69 53.1187L1220.64 52.792ZM1239.84 52.792L1240.8 52.5094L1240.59 51.792H1239.84V52.792ZM1253.15 97.976L1253.17 98.9757L1254.48 98.9461L1254.11 97.6934L1253.15 97.976ZM1247.52 98.104L1246.57 97.795L1246.13 99.1358L1247.54 99.1037L1247.52 98.104ZM1262.24 52.792V51.792H1261.51L1261.29 52.483L1262.24 52.792ZM1278.11 52.792L1279.06 52.4806L1278.84 51.792H1278.11V52.792ZM1292.96 98.104L1292.94 99.1038L1294.35 99.1351L1293.91 97.7926L1292.96 98.104ZM1287.2 97.976L1286.24 97.6909L1285.87 98.9466L1287.18 98.9758L1287.2 97.976ZM1300.64 52.792V51.792H1299.89L1299.68 52.5069L1300.64 52.792ZM1319.84 52.792L1320.79 53.1187L1321.24 51.792H1319.84V52.792ZM1298.34 115V116H1299.05L1299.28 115.327L1298.34 115ZM1282.34 115L1281.39 115.319L1281.62 116H1282.34V115ZM1267.87 71.992V70.992H1266.48L1266.92 72.3108L1267.87 71.992ZM1272.74 71.992L1273.68 72.3158L1274.14 70.992H1272.74V71.992ZM1258.02 115V116H1258.73L1258.96 115.324L1258.02 115ZM1243.09 114.673L1221.59 52.4653L1219.69 53.1187L1241.2 115.327L1243.09 114.673ZM1220.64 53.792H1239.84V51.792H1220.64V53.792ZM1238.88 53.0746L1252.19 98.2586L1254.11 97.6934L1240.8 52.5094L1238.88 53.0746ZM1253.13 96.9763L1247.5 97.1043L1247.54 99.1037L1253.17 98.9757L1253.13 96.9763ZM1248.47 98.413L1263.19 53.101L1261.29 52.483L1246.57 97.795L1248.47 98.413ZM1262.24 53.792H1278.11V51.792H1262.24V53.792ZM1277.16 53.1034L1292.01 98.4154L1293.91 97.7926L1279.06 52.4806L1277.16 53.1034ZM1292.98 97.1042L1287.22 96.9762L1287.18 98.9758L1292.94 99.1038L1292.98 97.1042ZM1288.16 98.2611L1301.6 53.0771L1299.68 52.5069L1286.24 97.6909L1288.16 98.2611ZM1300.64 53.792H1319.84V51.792H1300.64V53.792ZM1318.89 52.4653L1297.39 114.673L1299.28 115.327L1320.79 53.1187L1318.89 52.4653ZM1298.34 114H1282.34V116H1298.34V114ZM1283.28 114.681L1268.82 71.6732L1266.92 72.3108L1281.39 115.319L1283.28 114.681ZM1267.87 72.992H1272.74V70.992H1267.87V72.992ZM1271.79 71.6682L1257.07 114.676L1258.96 115.324L1273.68 72.3158L1271.79 71.6682ZM1258.02 114H1242.14V116H1258.02V114ZM1368.94 115H1367.94V116H1368.94V115ZM1368.94 99.384V98.384H1367.94V99.384H1368.94ZM1399.4 95.928L1400.12 96.6216L1400.12 96.6216L1399.4 95.928ZM1396.84 77.112L1396.35 77.9802L1396.36 77.9852L1396.36 77.9899L1396.84 77.112ZM1368.94 75.576H1367.94V76.576H1368.94V75.576ZM1368.94 60.344V59.344H1367.94V60.344H1368.94ZM1396.59 57.912L1397.21 58.696L1397.22 58.6883L1397.23 58.6802L1396.59 57.912ZM1396.59 42.808L1395.95 43.5762L1395.96 43.5843L1395.97 43.592L1396.59 42.808ZM1368.94 40.248H1367.94V41.248H1368.94V40.248ZM1368.94 24.632V23.632H1367.94V24.632H1368.94ZM1407.08 27.832L1406.61 28.7149L1406.62 28.7189L1407.08 27.832ZM1416.43 36.408L1415.57 36.9195L1415.57 36.9195L1416.43 36.408ZM1414.25 62.392L1414.98 63.0743L1414.98 63.0743L1414.25 62.392ZM1398.38 70.328L1397.38 70.2527L1397.28 71.5767L1398.58 71.3072L1398.38 70.328ZM1398.89 63.544L1399.08 62.5618L1397.98 62.3516L1397.89 63.4687L1398.89 63.544ZM1416.43 72.376L1415.69 73.0543L1415.7 73.0618L1416.43 72.376ZM1418.99 102.2L1418.14 101.675L1418.13 101.68L1418.99 102.2ZM1408.49 111.544L1408.04 110.65L1408.04 110.653L1408.49 111.544ZM1353.58 115H1352.58V116H1353.58V115ZM1353.58 24.632V23.632H1352.58V24.632H1353.58ZM1373.42 24.632H1374.42V23.632H1373.42V24.632ZM1373.42 115V116H1374.42V115H1373.42ZM1369.94 115V99.384H1367.94V115H1369.94ZM1368.94 100.384H1390.19V98.384H1368.94V100.384ZM1390.19 100.384C1394.32 100.384 1397.67 99.1643 1400.12 96.6216L1398.68 95.2344C1396.69 97.2997 1393.91 98.384 1390.19 98.384V100.384ZM1400.12 96.6216C1402.53 94.1231 1403.73 91.0551 1403.73 87.48H1401.73C1401.73 90.5609 1400.71 93.1249 1398.68 95.2344L1400.12 96.6216ZM1403.73 87.48C1403.73 85.0227 1403.18 82.8 1402.06 80.8399L1400.33 81.8321C1401.25 83.456 1401.73 85.3293 1401.73 87.48H1403.73ZM1402.06 80.8399C1400.94 78.881 1399.36 77.3435 1397.32 76.2341L1396.36 77.9899C1398.08 78.9285 1399.4 80.207 1400.33 81.8321L1402.06 80.8399ZM1397.34 76.2438C1395.36 75.1124 1392.96 74.576 1390.19 74.576V76.576C1392.71 76.576 1394.74 77.0636 1396.35 77.9802L1397.34 76.2438ZM1390.19 74.576H1368.94V76.576H1390.19V74.576ZM1369.94 75.576V60.344H1367.94V75.576H1369.94ZM1368.94 61.344H1388.52V59.344H1368.94V61.344ZM1388.52 61.344C1392.01 61.344 1394.94 60.4917 1397.21 58.696L1395.97 57.128C1394.14 58.5749 1391.69 59.344 1388.52 59.344V61.344ZM1397.23 58.6802C1399.56 56.7327 1400.66 53.8523 1400.66 50.232H1398.66C1398.66 53.4384 1397.71 55.678 1395.95 57.1438L1397.23 58.6802ZM1400.66 50.232C1400.66 46.6898 1399.56 43.8852 1397.21 42.024L1395.97 43.592C1397.71 44.9734 1398.66 47.1182 1398.66 50.232H1400.66ZM1397.23 42.0398C1394.96 40.1491 1392.03 39.248 1388.52 39.248V41.248C1391.68 41.248 1394.12 42.0536 1395.95 43.5762L1397.23 42.0398ZM1388.52 39.248H1368.94V41.248H1388.52V39.248ZM1369.94 40.248V24.632H1367.94V40.248H1369.94ZM1368.94 25.632H1392.36V23.632H1368.94V25.632ZM1392.36 25.632C1398.05 25.632 1402.78 26.6768 1406.61 28.7149L1407.55 26.9491C1403.36 24.7205 1398.29 23.632 1392.36 23.632V25.632ZM1406.62 28.7189C1410.57 30.7759 1413.54 33.5119 1415.57 36.9195L1417.29 35.8965C1415.05 32.1361 1411.79 29.1547 1407.54 26.9451L1406.62 28.7189ZM1415.57 36.9195C1417.6 40.3419 1418.63 44.1319 1418.63 48.312H1420.63C1420.63 43.7881 1419.52 39.6421 1417.29 35.8965L1415.57 36.9195ZM1418.63 48.312C1418.63 53.621 1416.92 58.0659 1413.52 61.7097L1414.98 63.0743C1418.75 59.0381 1420.63 54.0964 1420.63 48.312H1418.63ZM1413.52 61.7097C1410.12 65.3527 1405.04 67.9253 1398.18 69.3488L1398.58 71.3072C1405.71 69.8294 1411.21 67.1113 1414.98 63.0743L1413.52 61.7097ZM1399.38 70.4033L1399.89 63.6193L1397.89 63.4687L1397.38 70.2527L1399.38 70.4033ZM1398.7 64.5262C1406.15 65.9481 1411.78 68.8134 1415.69 73.0543L1417.16 71.6977C1412.88 67.0639 1406.82 64.0413 1399.08 62.5618L1398.7 64.5262ZM1415.7 73.0618C1419.69 77.301 1421.7 82.5118 1421.7 88.76H1423.7C1423.7 82.0376 1421.52 76.3257 1417.15 71.6902L1415.7 73.0618ZM1421.7 88.76C1421.7 93.5336 1420.51 97.8302 1418.14 101.675L1419.84 102.725C1422.42 98.5485 1423.7 93.885 1423.7 88.76H1421.7ZM1418.13 101.68C1415.85 105.426 1412.5 108.419 1408.04 110.65L1408.94 112.438C1413.69 110.061 1417.34 106.825 1419.84 102.72L1418.13 101.68ZM1408.04 110.653C1403.69 112.869 1398.39 114 1392.11 114V116C1398.62 116 1404.25 114.827 1408.94 112.435L1408.04 110.653ZM1392.11 114H1368.94V116H1392.11V114ZM1354.58 115V24.632H1352.58V115H1354.58ZM1353.58 25.632H1373.42V23.632H1353.58V25.632ZM1372.42 24.632V115H1374.42V24.632H1372.42ZM1373.42 114H1353.58V116H1373.42V114ZM1446.2 112.952L1445.72 113.829L1445.73 113.834L1445.74 113.839L1446.2 112.952ZM1435.96 103.224L1435.1 103.733L1435.11 103.741L1435.96 103.224ZM1432.25 52.792V51.792H1431.25V52.792H1432.25ZM1451.84 52.792H1452.84V51.792H1451.84V52.792ZM1452.86 94.136L1451.95 94.5421L1451.95 94.5629L1451.96 94.5832L1452.86 94.136ZM1456.19 97.72L1456.69 96.8581L1456.69 96.8581L1456.19 97.72ZM1468.35 96.312L1469.07 97.0017L1469.08 96.9933L1469.09 96.9847L1468.35 96.312ZM1470.91 52.792V51.792H1469.91V52.792H1470.91ZM1490.49 52.792H1491.49V51.792H1490.49V52.792ZM1486.78 103.224L1487.63 103.741L1487.64 103.733L1486.78 103.224ZM1476.54 112.952L1477.01 113.836L1477.01 113.832L1477.02 113.829L1476.54 112.952ZM1461.44 115.408C1455.85 115.408 1450.94 114.285 1446.66 112.065L1445.74 113.839C1450.34 116.227 1455.58 117.408 1461.44 117.408V115.408ZM1446.68 112.075C1442.48 109.768 1439.2 106.646 1436.82 102.707L1435.11 103.741C1437.68 107.994 1441.22 111.358 1445.72 113.829L1446.68 112.075ZM1436.82 102.715C1434.45 98.7036 1433.25 94.1044 1433.25 88.888H1431.25C1431.25 94.4236 1432.53 99.3817 1435.1 103.733L1436.82 102.715ZM1433.25 88.888V52.792H1431.25V88.888H1433.25ZM1432.25 53.792H1451.84V51.792H1432.25V53.792ZM1450.84 52.792V88.632H1452.84V52.792H1450.84ZM1450.84 88.632C1450.84 90.8689 1451.19 92.8488 1451.95 94.5421L1453.77 93.7299C1453.16 92.3512 1452.84 90.6617 1452.84 88.632H1450.84ZM1451.96 94.5832C1452.82 96.2882 1454.06 97.6286 1455.68 98.5819L1456.69 96.8581C1455.41 96.1047 1454.44 95.0558 1453.75 93.6888L1451.96 94.5832ZM1455.68 98.5819C1457.31 99.5434 1459.25 100 1461.44 100V98C1459.53 98 1457.96 97.6033 1456.69 96.8581L1455.68 98.5819ZM1461.44 100C1464.56 100 1467.14 99.0261 1469.07 97.0017L1467.62 95.6223C1466.14 97.1819 1464.11 98 1461.44 98V100ZM1469.09 96.9847C1471 94.8764 1471.91 92.0519 1471.91 88.632H1469.91C1469.91 91.6974 1469.1 93.9929 1467.61 95.6393L1469.09 96.9847ZM1471.91 88.632V52.792H1469.91V88.632H1471.91ZM1470.91 53.792H1490.49V51.792H1470.91V53.792ZM1489.49 52.792V88.76H1491.49V52.792H1489.49ZM1489.49 88.76C1489.49 94.0649 1488.29 98.706 1485.92 102.715L1487.64 103.733C1490.22 99.3793 1491.49 94.3778 1491.49 88.76H1489.49ZM1485.92 102.707C1483.54 106.646 1480.26 109.768 1476.06 112.075L1477.02 113.829C1481.52 111.358 1485.07 107.994 1487.63 103.741L1485.92 102.707ZM1476.07 112.068C1471.88 114.284 1467.02 115.408 1461.44 115.408V117.408C1467.29 117.408 1472.49 116.228 1477.01 113.836L1476.07 112.068ZM1513.54 112.056L1513.01 112.905L1513.02 112.909L1513.54 112.056ZM1502.79 100.536L1501.9 101.002L1501.91 101.014L1502.79 100.536ZM1502.79 67.256L1501.91 66.7782L1501.9 66.7903L1502.79 67.256ZM1513.54 55.736L1513.02 54.8827L1513.01 54.8871L1513.54 55.736ZM1540.8 53.944L1540.37 54.8473L1540.38 54.8513L1540.8 53.944ZM1549.38 60.728L1548.58 61.3354L1548.59 61.3485L1548.61 61.3612L1549.38 60.728ZM1553.22 70.456H1554.22V70.4212L1554.22 70.3864L1553.22 70.456ZM1553.22 96.696L1554.22 96.7656L1554.22 96.7308V96.696H1553.22ZM1549.51 106.68L1550.3 107.288L1550.31 107.276L1549.51 106.68ZM1540.93 113.72L1541.37 114.619L1541.38 114.614L1541.39 114.61L1540.93 113.72ZM1540.04 96.824L1540.54 97.6878L1540.55 97.6801L1540.57 97.672L1540.04 96.824ZM1544.9 91.576L1544.02 91.1019L1544.02 91.1019L1544.9 91.576ZM1544.9 76.344L1544 76.7912L1544.02 76.8122L1544.03 76.8326L1544.9 76.344ZM1540.04 71.096L1539.51 71.944L1539.51 71.9488L1539.52 71.9535L1540.04 71.096ZM1525.57 71.096L1525.06 70.2385L1525.05 70.2432L1525.04 70.248L1525.57 71.096ZM1520.58 76.344L1519.71 75.8443L1519.71 75.857L1519.7 75.8699L1520.58 76.344ZM1520.58 91.448L1519.7 91.9221L1519.7 91.9221L1520.58 91.448ZM1565.12 115V116H1566.12V115H1565.12ZM1545.92 115H1544.92V116H1545.92V115ZM1545.92 98.232L1544.94 98.0407L1544.92 98.1354V98.232H1545.92ZM1548.87 83.128L1549.85 83.3193L1549.89 83.1156L1549.84 82.9128L1548.87 83.128ZM1545.54 68.024H1544.54V68.1329L1544.56 68.2392L1545.54 68.024ZM1545.54 22.072V21.072H1544.54V22.072H1545.54ZM1565.12 22.072H1566.12V21.072H1565.12V22.072ZM1529.28 115.28C1523.56 115.28 1518.5 113.914 1514.06 111.203L1513.02 112.909C1517.8 115.83 1523.23 117.28 1529.28 117.28V115.28ZM1514.07 111.207C1509.7 108.486 1506.23 104.777 1503.67 100.058L1501.91 101.014C1504.63 106.023 1508.34 109.994 1513.01 112.905L1514.07 111.207ZM1503.67 100.07C1501.2 95.368 1499.95 89.9849 1499.95 83.896H1497.95C1497.95 90.2658 1499.26 95.976 1501.9 101.002L1503.67 100.07ZM1499.95 83.896C1499.95 77.8071 1501.2 72.424 1503.67 67.7217L1501.9 66.7903C1499.26 71.816 1497.95 77.5262 1497.95 83.896H1499.95ZM1503.67 67.7338C1506.23 63.0154 1509.7 59.3059 1514.07 56.5849L1513.01 54.8871C1508.34 57.7981 1504.63 61.7686 1501.91 66.7782L1503.67 67.7338ZM1514.06 56.5893C1518.5 53.8778 1523.56 52.512 1529.28 52.512V50.512C1523.23 50.512 1517.8 51.9622 1513.02 54.8827L1514.06 56.5893ZM1529.28 52.512C1533.42 52.512 1537.11 53.2974 1540.37 54.8473L1541.23 53.0407C1537.67 51.3479 1533.68 50.512 1529.28 50.512V52.512ZM1540.38 54.8513C1543.74 56.4084 1546.47 58.5701 1548.58 61.3354L1550.17 60.1205C1547.85 57.0832 1544.86 54.7223 1541.22 53.0367L1540.38 54.8513ZM1548.61 61.3612C1550.78 64.0152 1551.98 67.0603 1552.22 70.5256L1554.22 70.3864C1553.95 66.513 1552.59 63.0728 1550.15 60.0948L1548.61 61.3612ZM1552.22 70.456V96.696H1554.22V70.456H1552.22ZM1552.22 96.6264C1551.98 100.103 1550.81 103.248 1548.7 106.084L1550.31 107.276C1552.64 104.138 1553.95 100.628 1554.22 96.7656L1552.22 96.6264ZM1548.71 106.073C1546.59 108.847 1543.85 111.101 1540.48 112.83L1541.39 114.61C1545.01 112.755 1547.99 110.316 1550.3 107.287L1548.71 106.073ZM1540.49 112.821C1537.14 114.455 1533.41 115.28 1529.28 115.28V117.28C1533.69 117.28 1537.72 116.398 1541.37 114.619L1540.49 112.821ZM1532.74 99.616C1535.7 99.616 1538.31 98.9871 1540.54 97.6878L1539.53 95.9602C1537.66 97.0502 1535.41 97.616 1532.74 97.616V99.616ZM1540.57 97.672C1542.77 96.2959 1544.51 94.4148 1545.78 92.0501L1544.02 91.1019C1542.9 93.1745 1541.4 94.7921 1539.51 95.976L1540.57 97.672ZM1545.78 92.0501C1547.06 89.665 1547.69 86.9376 1547.69 83.896H1545.69C1545.69 86.6571 1545.12 89.0497 1544.02 91.1019L1545.78 92.0501ZM1547.69 83.896C1547.69 80.8556 1547.06 78.1636 1545.77 75.8554L1544.03 76.8326C1545.12 78.791 1545.69 81.1338 1545.69 83.896H1547.69ZM1545.79 75.8968C1544.6 73.5075 1542.85 71.616 1540.55 70.2385L1539.52 71.9535C1541.49 73.1359 1542.98 74.7432 1544 76.7912L1545.79 75.8968ZM1540.57 70.248C1538.34 68.8561 1535.76 68.176 1532.87 68.176V70.176C1535.44 70.176 1537.64 70.7759 1539.51 71.944L1540.57 70.248ZM1532.87 68.176C1529.97 68.176 1527.36 68.8563 1525.06 70.2385L1526.09 71.9535C1528.05 70.7757 1530.3 70.176 1532.87 70.176V68.176ZM1525.04 70.248C1522.85 71.6201 1521.07 73.4926 1519.71 75.8443L1521.45 76.8437C1522.65 74.7581 1524.2 73.1319 1526.1 71.944L1525.04 70.248ZM1519.7 75.8699C1518.42 78.2507 1517.79 80.9343 1517.79 83.896H1519.79C1519.79 81.2257 1520.35 78.8746 1521.46 76.8181L1519.7 75.8699ZM1517.79 83.896C1517.79 86.8577 1518.42 89.5413 1519.7 91.9221L1521.46 90.9739C1520.35 88.9174 1519.79 86.5663 1519.79 83.896H1517.79ZM1519.7 91.9221C1520.98 94.297 1522.77 96.1797 1525.06 97.5535L1526.09 95.8385C1524.11 94.6523 1522.57 93.0363 1521.46 90.9739L1519.7 91.9221ZM1525.06 97.5535C1527.36 98.9327 1529.92 99.616 1532.74 99.616V97.616C1530.26 97.616 1528.05 97.0193 1526.09 95.8385L1525.06 97.5535ZM1565.12 114H1545.92V116H1565.12V114ZM1546.92 115V98.232H1544.92V115H1546.92ZM1546.9 98.4233L1549.85 83.3193L1547.89 82.9367L1544.94 98.0407L1546.9 98.4233ZM1549.84 82.9128L1546.52 67.8088L1544.56 68.2392L1547.89 83.3432L1549.84 82.9128ZM1546.54 68.024V22.072H1544.54V68.024H1546.54ZM1545.54 23.072H1565.12V21.072H1545.54V23.072ZM1564.12 22.072V115H1566.12V22.072H1564.12ZM1590.69 115.128L1590.43 116.094L1590.43 116.095L1590.69 115.128ZM1580.83 111.16L1580.32 112.017L1580.33 112.026L1580.35 112.034L1580.83 111.16ZM1573.15 105.016L1572.44 104.313L1571.77 104.993L1572.42 105.695L1573.15 105.016ZM1584.29 93.752L1585.02 93.0737L1584.31 92.3045L1583.58 93.0489L1584.29 93.752ZM1591.58 99L1591.17 99.9104L1591.18 99.9156L1591.19 99.9206L1591.58 99ZM1606.05 99.768L1605.58 98.8856L1605.56 98.8925L1605.55 98.8998L1606.05 99.768ZM1605.66 93.496L1605.16 94.3579L1605.19 94.3752L1605.22 94.3904L1605.66 93.496ZM1600.03 91.32L1599.75 92.2788L1599.76 92.2837L1599.78 92.288L1600.03 91.32ZM1585.44 85.944L1585.95 85.0837L1585.95 85.0837L1585.44 85.944ZM1579.81 80.312L1578.95 80.8177L1578.95 80.8244L1578.95 80.831L1579.81 80.312ZM1580.7 60.6L1581.52 61.1767L1581.53 61.1655L1580.7 60.6ZM1589.41 53.56L1588.99 52.6496L1588.99 52.6496L1589.41 53.56ZM1617.18 53.816L1616.79 54.737L1616.8 54.7414L1616.82 54.7457L1617.18 53.816ZM1628.19 61.88L1628.9 62.5831L1629.52 61.9558L1628.98 61.2622L1628.19 61.88ZM1617.06 73.144L1616.29 73.7925L1617 74.6218L1617.77 73.8471L1617.06 73.144ZM1610.4 68.28L1610.03 69.2108L1610.05 69.215L1610.4 68.28ZM1598.37 67.896L1598.84 68.7765L1598.87 68.7628L1598.89 68.7477L1598.37 67.896ZM1604.51 75.704L1604.26 76.672L1604.26 76.672L1604.51 75.704ZM1611.81 77.88L1612.12 76.9313L1612.12 76.9313L1611.81 77.88ZM1619.1 81.336L1619.64 80.4898L1619.64 80.4898L1619.1 81.336ZM1624.74 87.224L1623.87 87.7297L1623.88 87.7364L1623.88 87.743L1624.74 87.224ZM1620 111.16L1619.39 110.371L1619.38 110.376L1620 111.16ZM1601.57 115.536C1597.99 115.536 1594.44 115.078 1590.94 114.161L1590.43 116.095C1594.1 117.055 1597.81 117.536 1601.57 117.536V115.536ZM1590.95 114.162C1587.52 113.244 1584.32 111.952 1581.32 110.286L1580.35 112.034C1583.49 113.782 1586.85 115.135 1590.43 116.094L1590.95 114.162ZM1581.35 110.303C1578.43 108.554 1575.95 106.564 1573.89 104.337L1572.42 105.695C1574.62 108.076 1577.26 110.182 1580.32 112.017L1581.35 110.303ZM1573.86 105.719L1585 94.4551L1583.58 93.0489L1572.44 104.313L1573.86 105.719ZM1583.55 94.4303C1585.69 96.7494 1588.24 98.5766 1591.17 99.9104L1592 98.0896C1589.3 96.8634 1586.98 95.192 1585.02 93.0737L1583.55 94.4303ZM1591.19 99.9206C1594.14 101.172 1597.35 101.792 1600.8 101.792V99.792C1597.59 99.792 1594.66 99.2172 1591.97 98.0794L1591.19 99.9206ZM1600.8 101.792C1603.17 101.792 1605.13 101.445 1606.54 100.636L1605.55 98.8998C1604.58 99.4561 1603.03 99.792 1600.8 99.792V101.792ZM1606.52 100.65C1608.04 99.8384 1608.97 98.6018 1608.97 96.952H1606.97C1606.97 97.6916 1606.61 98.3323 1605.58 98.8856L1606.52 100.65ZM1608.97 96.952C1608.97 96.009 1608.73 95.1393 1608.22 94.3813C1607.72 93.6296 1607 93.0449 1606.11 92.6016L1605.22 94.3904C1605.87 94.7151 1606.29 95.0904 1606.56 95.4907C1606.82 95.8847 1606.97 96.359 1606.97 96.952H1608.97ZM1606.17 92.6341C1604.61 91.7187 1602.64 90.9638 1600.28 90.352L1599.78 92.288C1602.03 92.8708 1603.81 93.5666 1605.16 94.3579L1606.17 92.6341ZM1600.32 90.3612C1598.01 89.6789 1595.58 88.9539 1593.02 88.1862L1592.45 90.1018C1595.01 90.8701 1597.44 91.5958 1599.75 92.2788L1600.32 90.3612ZM1593.02 88.1862C1590.54 87.4416 1588.18 86.4077 1585.95 85.0837L1584.93 86.8043C1587.3 88.211 1589.81 89.3104 1592.45 90.1018L1593.02 88.1862ZM1585.95 85.0837C1583.79 83.8058 1582.03 82.0483 1580.66 79.793L1578.95 80.831C1580.49 83.3543 1582.48 85.3515 1584.93 86.8043L1585.95 85.0837ZM1580.67 79.8063C1579.33 77.5254 1578.63 74.5984 1578.63 70.968H1576.63C1576.63 74.8469 1577.38 78.1493 1578.95 80.8177L1580.67 79.8063ZM1578.63 70.968C1578.63 67.1361 1579.61 63.8879 1581.52 61.1767L1579.89 60.0233C1577.7 63.1147 1576.63 66.7786 1576.63 70.968H1578.63ZM1581.53 61.1655C1583.46 58.3491 1586.21 56.1123 1589.82 54.4704L1588.99 52.6496C1585.1 54.421 1582.04 56.8776 1579.88 60.0345L1581.53 61.1655ZM1589.82 54.4704C1593.42 52.8343 1597.67 52 1602.59 52V50C1597.45 50 1592.9 50.8723 1588.99 52.6496L1589.82 54.4704ZM1602.59 52C1607.76 52 1612.49 52.9167 1616.79 54.737L1617.57 52.895C1613 50.9606 1608 50 1602.59 50V52ZM1616.82 54.7457C1621.19 56.4771 1624.71 59.0623 1627.41 62.4978L1628.98 61.2622C1626.05 57.5297 1622.23 54.7389 1617.55 52.8863L1616.82 54.7457ZM1627.48 61.1769L1616.34 72.4409L1617.77 73.8471L1628.9 62.5831L1627.48 61.1769ZM1617.82 72.4955C1615.76 70.0819 1613.41 68.3515 1610.75 67.345L1610.05 69.215C1612.34 70.0858 1614.43 71.5981 1616.29 73.7925L1617.82 72.4955ZM1610.77 67.3492C1608.27 66.37 1605.8 65.872 1603.36 65.872V67.872C1605.53 67.872 1607.75 68.3126 1610.03 69.2108L1610.77 67.3492ZM1603.36 65.872C1601.07 65.872 1599.19 66.2183 1597.84 67.0443L1598.89 68.7477C1599.77 68.2084 1601.21 67.872 1603.36 67.872V65.872ZM1597.89 67.0155C1597.22 67.381 1596.66 67.866 1596.27 68.4896C1595.88 69.1161 1595.7 69.8262 1595.7 70.584H1597.7C1597.7 70.1471 1597.8 69.8119 1597.97 69.5424C1598.14 69.27 1598.41 69.0084 1598.84 68.7765L1597.89 67.0155ZM1595.7 70.584C1595.7 72.3429 1596.74 73.6559 1598.41 74.5398L1599.35 72.7722C1598.12 72.1201 1597.7 71.3851 1597.7 70.584H1595.7ZM1598.41 74.5398C1599.95 75.3565 1601.91 76.063 1604.26 76.672L1604.76 74.736C1602.5 74.1503 1600.71 73.4915 1599.35 72.7722L1598.41 74.5398ZM1604.26 76.672C1606.54 77.2629 1608.95 77.9816 1611.49 78.8287L1612.12 76.9313C1609.55 76.0717 1607.09 75.3397 1604.76 74.736L1604.26 76.672ZM1611.49 78.8287C1613.98 79.6564 1616.33 80.7739 1618.57 82.1822L1619.64 80.4898C1617.27 78.9968 1614.76 77.8102 1612.12 76.9313L1611.49 78.8287ZM1618.57 82.1822C1620.73 83.5429 1622.5 85.3857 1623.87 87.7297L1625.6 86.7183C1624.07 84.1129 1622.08 82.0304 1619.64 80.4898L1618.57 82.1822ZM1623.88 87.743C1625.21 89.9249 1625.91 92.8831 1625.91 96.696H1627.91C1627.91 92.6582 1627.17 89.3017 1625.59 86.705L1623.88 87.743ZM1625.91 96.696C1625.91 102.46 1623.74 106.984 1619.39 110.371L1620.61 111.949C1625.48 108.168 1627.91 103.05 1627.91 96.696H1625.91ZM1619.38 110.376C1615.09 113.779 1609.19 115.536 1601.57 115.536V117.536C1609.48 117.536 1615.87 115.709 1620.62 111.944L1619.38 110.376ZM1649.31 115.128L1649.05 116.094L1649.06 116.095L1649.31 115.128ZM1639.46 111.16L1638.94 112.017L1638.96 112.026L1638.97 112.034L1639.46 111.16ZM1631.78 105.016L1631.07 104.313L1630.39 104.993L1631.04 105.695L1631.78 105.016ZM1642.91 93.752L1643.65 93.0737L1642.94 92.3045L1642.2 93.0489L1642.91 93.752ZM1650.21 99L1649.8 99.9104L1649.81 99.9156L1649.82 99.9206L1650.21 99ZM1664.67 99.768L1664.2 98.8856L1664.19 98.8925L1664.18 98.8998L1664.67 99.768ZM1664.29 93.496L1663.78 94.3579L1663.81 94.3752L1663.84 94.3904L1664.29 93.496ZM1658.66 91.32L1658.37 92.2788L1658.39 92.2837L1658.41 92.288L1658.66 91.32ZM1644.07 85.944L1644.57 85.0837L1644.57 85.0837L1644.07 85.944ZM1638.43 80.312L1637.57 80.8177L1637.57 80.8244L1637.58 80.831L1638.43 80.312ZM1639.33 60.6L1640.15 61.1767L1640.15 61.1655L1639.33 60.6ZM1648.03 53.56L1647.62 52.6496L1647.62 52.6496L1648.03 53.56ZM1675.81 53.816L1675.42 54.737L1675.43 54.7414L1675.44 54.7457L1675.81 53.816ZM1686.82 61.88L1687.53 62.5831L1688.15 61.9558L1687.6 61.2622L1686.82 61.88ZM1675.68 73.144L1674.92 73.7925L1675.63 74.6218L1676.39 73.8471L1675.68 73.144ZM1669.03 68.28L1668.66 69.2108L1668.67 69.215L1669.03 68.28ZM1656.99 67.896L1657.47 68.7765L1657.49 68.7628L1657.52 68.7477L1656.99 67.896ZM1663.14 75.704L1662.89 76.672L1662.89 76.672L1663.14 75.704ZM1670.43 77.88L1670.75 76.9313L1670.75 76.9313L1670.43 77.88ZM1677.73 81.336L1678.26 80.4898L1678.26 80.4898L1677.73 81.336ZM1683.36 87.224L1682.5 87.7297L1682.5 87.7364L1682.51 87.743L1683.36 87.224ZM1678.63 111.16L1678.01 110.371L1678 110.376L1678.63 111.16ZM1660.19 115.536C1656.61 115.536 1653.07 115.078 1649.57 114.161L1649.06 116.095C1652.73 117.055 1656.44 117.536 1660.19 117.536V115.536ZM1649.57 114.162C1646.15 113.244 1642.94 111.952 1639.94 110.286L1638.97 112.034C1642.12 113.782 1645.48 115.135 1649.05 116.094L1649.57 114.162ZM1639.97 110.303C1637.06 108.554 1634.57 106.564 1632.51 104.337L1631.04 105.695C1633.25 108.076 1635.88 110.182 1638.94 112.017L1639.97 110.303ZM1632.49 105.719L1643.62 94.4551L1642.2 93.0489L1631.07 104.313L1632.49 105.719ZM1642.18 94.4303C1644.32 96.7494 1646.86 98.5766 1649.8 99.9104L1650.62 98.0896C1647.93 96.8634 1645.6 95.192 1643.65 93.0737L1642.18 94.4303ZM1649.82 99.9206C1652.77 101.172 1655.97 101.792 1659.43 101.792V99.792C1656.22 99.792 1653.28 99.2172 1650.6 98.0794L1649.82 99.9206ZM1659.43 101.792C1661.8 101.792 1663.75 101.445 1665.17 100.636L1664.18 98.8998C1663.2 99.4561 1661.66 99.792 1659.43 99.792V101.792ZM1665.14 100.65C1666.67 99.8384 1667.59 98.6018 1667.59 96.952H1665.59C1665.59 97.6916 1665.24 98.3323 1664.2 98.8856L1665.14 100.65ZM1667.59 96.952C1667.59 96.009 1667.35 95.1393 1666.85 94.3813C1666.35 93.6296 1665.62 93.0449 1664.74 92.6016L1663.84 94.3904C1664.49 94.7151 1664.92 95.0904 1665.18 95.4907C1665.45 95.8847 1665.59 96.359 1665.59 96.952H1667.59ZM1664.8 92.6341C1663.24 91.7187 1661.27 90.9638 1658.91 90.352L1658.41 92.288C1660.65 92.8708 1662.44 93.5666 1663.78 94.3579L1664.8 92.6341ZM1658.94 90.3612C1656.64 89.6789 1654.21 88.9539 1651.65 88.1862L1651.07 90.1018C1653.63 90.8701 1656.07 91.5958 1658.37 92.2788L1658.94 90.3612ZM1651.65 88.1862C1649.17 87.4416 1646.81 86.4077 1644.57 85.0837L1643.56 86.8043C1645.93 88.211 1648.44 89.3104 1651.07 90.1018L1651.65 88.1862ZM1644.57 85.0837C1642.42 83.8058 1640.66 82.0483 1639.29 79.793L1637.58 80.831C1639.11 83.3543 1641.1 85.3515 1643.56 86.8043L1644.57 85.0837ZM1639.3 79.8063C1637.96 77.5254 1637.26 74.5984 1637.26 70.968H1635.26C1635.26 74.8469 1636.01 78.1493 1637.57 80.8177L1639.3 79.8063ZM1637.26 70.968C1637.26 67.1361 1638.23 63.8879 1640.15 61.1767L1638.51 60.0233C1636.33 63.1147 1635.26 66.7786 1635.26 70.968H1637.26ZM1640.15 61.1655C1642.09 58.3491 1644.83 56.1123 1648.45 54.4704L1647.62 52.6496C1643.72 54.421 1640.67 56.8776 1638.5 60.0345L1640.15 61.1655ZM1648.45 54.4704C1652.05 52.8343 1656.29 52 1661.22 52V50C1656.07 50 1651.53 50.8723 1647.62 52.6496L1648.45 54.4704ZM1661.22 52C1666.39 52 1671.12 52.9167 1675.42 54.737L1676.2 52.895C1671.63 50.9606 1666.63 50 1661.22 50V52ZM1675.44 54.7457C1679.81 56.4771 1683.33 59.0623 1686.03 62.4978L1687.6 61.2622C1684.67 57.5297 1680.85 54.7389 1676.18 52.8863L1675.44 54.7457ZM1686.11 61.1769L1674.97 72.4409L1676.39 73.8471L1687.53 62.5831L1686.11 61.1769ZM1676.44 72.4955C1674.39 70.0819 1672.03 68.3515 1669.38 67.345L1668.67 69.215C1670.97 70.0858 1673.05 71.5981 1674.92 73.7925L1676.44 72.4955ZM1669.39 67.3492C1666.9 66.37 1664.43 65.872 1661.99 65.872V67.872C1664.15 67.872 1666.37 68.3126 1668.66 69.2108L1669.39 67.3492ZM1661.99 65.872C1659.7 65.872 1657.81 66.2183 1656.47 67.0443L1657.52 68.7477C1658.39 68.2084 1659.84 67.872 1661.99 67.872V65.872ZM1656.52 67.0155C1655.84 67.381 1655.28 67.866 1654.89 68.4896C1654.51 69.1161 1654.33 69.8262 1654.33 70.584H1656.33C1656.33 70.1471 1656.43 69.8119 1656.6 69.5424C1656.76 69.27 1657.04 69.0084 1657.47 68.7765L1656.52 67.0155ZM1654.33 70.584C1654.33 72.3429 1655.37 73.6559 1657.04 74.5398L1657.97 72.7722C1656.74 72.1201 1656.33 71.3851 1656.33 70.584H1654.33ZM1657.04 74.5398C1658.58 75.3565 1660.54 76.063 1662.89 76.672L1663.39 74.736C1661.13 74.1503 1659.33 73.4915 1657.97 72.7722L1657.04 74.5398ZM1662.89 76.672C1665.17 77.2629 1667.58 77.9816 1670.12 78.8287L1670.75 76.9313C1668.17 76.0717 1665.72 75.3397 1663.39 74.736L1662.89 76.672ZM1670.12 78.8287C1672.6 79.6564 1674.96 80.7739 1677.2 82.1822L1678.26 80.4898C1675.89 78.9968 1673.39 77.8102 1670.75 76.9313L1670.12 78.8287ZM1677.2 82.1822C1679.36 83.5429 1681.12 85.3857 1682.5 87.7297L1684.22 86.7183C1682.7 84.1129 1680.71 82.0304 1678.26 80.4898L1677.2 82.1822ZM1682.51 87.743C1683.83 89.9249 1684.54 92.8831 1684.54 96.696H1686.54C1686.54 92.6582 1685.79 89.3017 1684.22 86.705L1682.51 87.743ZM1684.54 96.696C1684.54 102.46 1682.36 106.984 1678.01 110.371L1679.24 111.949C1684.1 108.168 1686.54 103.05 1686.54 96.696H1684.54ZM1678 110.376C1673.71 113.779 1667.81 115.536 1660.19 115.536V117.536C1668.11 117.536 1674.49 115.709 1679.25 111.944L1678 110.376ZM1744.86 115L1743.91 115.306L1744.13 116H1744.86V115ZM1715.8 24.632V23.632H1714.43L1714.85 24.9381L1715.8 24.632ZM1735.77 24.632L1736.73 24.3396L1736.51 23.632H1735.77V24.632ZM1757.02 94.136V95.136H1758.37L1757.97 93.8436L1757.02 94.136ZM1749.21 94.136L1748.25 93.8501L1747.87 95.136H1749.21V94.136ZM1769.95 24.632V23.632H1769.2L1768.99 24.3461L1769.95 24.632ZM1785.69 24.632L1786.65 24.3461L1786.43 23.632H1785.69V24.632ZM1806.43 94.136V95.136H1807.77L1807.38 93.8501L1806.43 94.136ZM1798.75 94.136L1797.79 93.8453L1797.4 95.136H1798.75V94.136ZM1819.87 24.632V23.632H1819.12L1818.91 24.3413L1819.87 24.632ZM1839.71 24.632L1840.66 24.9381L1841.08 23.632H1839.71V24.632ZM1810.65 115V116H1811.38L1811.6 115.306L1810.65 115ZM1794.91 115L1793.95 115.288L1794.16 116H1794.91V115ZM1774.04 45.496V44.496H1772.7L1773.08 45.7835L1774.04 45.496ZM1781.47 45.496L1782.42 45.7835L1782.81 44.496H1781.47V45.496ZM1760.6 115V116H1761.34L1761.56 115.288L1760.6 115ZM1745.81 114.694L1716.75 24.3259L1714.85 24.9381L1743.91 115.306L1745.81 114.694ZM1715.8 25.632H1735.77V23.632H1715.8V25.632ZM1734.81 24.9243L1756.06 94.4284L1757.97 93.8436L1736.73 24.3396L1734.81 24.9243ZM1757.02 93.136H1749.21V95.136H1757.02V93.136ZM1750.17 94.4219L1770.9 24.9179L1768.99 24.3461L1748.25 93.8501L1750.17 94.4219ZM1769.95 25.632H1785.69V23.632H1769.95V25.632ZM1784.73 24.9179L1805.47 94.4219L1807.38 93.8501L1786.65 24.3461L1784.73 24.9179ZM1806.43 93.136H1798.75V95.136H1806.43V93.136ZM1799.7 94.4267L1820.82 24.9227L1818.91 24.3413L1797.79 93.8453L1799.7 94.4267ZM1819.87 25.632H1839.71V23.632H1819.87V25.632ZM1838.75 24.3259L1809.7 114.694L1811.6 115.306L1840.66 24.9381L1838.75 24.3259ZM1810.65 114H1794.91V116H1810.65V114ZM1795.86 114.712L1775 45.2085L1773.08 45.7835L1793.95 115.288L1795.86 114.712ZM1774.04 46.496H1781.47V44.496H1774.04V46.496ZM1780.51 45.2085L1759.64 114.712L1761.56 115.288L1782.42 45.7835L1780.51 45.2085ZM1760.6 114H1744.86V116H1760.6V114ZM1853.33 112.184L1852.84 113.054L1852.85 113.059L1852.86 113.064L1853.33 112.184ZM1841.17 100.408L1842.03 99.8913L1842.03 99.8913L1841.17 100.408ZM1841.17 67.256L1840.32 66.7327L1840.32 66.7327L1841.17 67.256ZM1853.33 55.736L1853.81 56.6123L1853.82 56.606L1853.33 55.736ZM1900.31 67.256L1899.45 67.7727L1899.45 67.7793L1900.31 67.256ZM1900.31 100.408L1901.16 100.925L1901.16 100.925L1900.31 100.408ZM1888.15 112.184L1888.63 113.06L1888.64 113.054L1888.15 112.184ZM1878.16 96.824L1878.65 97.6965L1878.66 97.6892L1878.68 97.6815L1878.16 96.824ZM1883.03 91.576L1882.14 91.1157L1882.14 91.1222L1882.13 91.1288L1883.03 91.576ZM1883.03 76.216L1882.15 76.6901L1882.15 76.6974L1882.15 76.7046L1883.03 76.216ZM1878.04 71.096L1877.51 71.944L1877.53 71.9567L1877.55 71.9685L1878.04 71.096ZM1863.44 71.096L1863.93 71.9685L1863.94 71.9612L1863.96 71.9535L1863.44 71.096ZM1858.45 76.216L1859.33 76.6901L1859.33 76.6901L1858.45 76.216ZM1858.45 91.576L1857.56 92.0363L1857.57 92.0432L1857.57 92.0501L1858.45 91.576ZM1863.44 96.824L1862.93 97.6815L1862.94 97.6892L1862.95 97.6965L1863.44 96.824ZM1870.74 115.408C1864.49 115.408 1858.85 114.035 1853.81 111.304L1852.86 113.064C1858.22 115.965 1864.19 117.408 1870.74 117.408V115.408ZM1853.82 111.314C1848.85 108.496 1844.92 104.691 1842.03 99.8913L1840.31 100.925C1843.39 106.024 1847.57 110.07 1852.84 113.054L1853.82 111.314ZM1842.03 99.8913C1839.14 95.1078 1837.69 89.7418 1837.69 83.768H1835.69C1835.69 90.0822 1837.23 95.8095 1840.31 100.925L1842.03 99.8913ZM1837.69 83.768C1837.69 77.7941 1839.14 72.4738 1842.02 67.7793L1840.32 66.7327C1837.23 71.7662 1835.69 77.4539 1835.69 83.768H1837.69ZM1842.02 67.7793C1844.92 63.0666 1848.84 59.3467 1853.81 56.6122L1852.85 54.8598C1847.58 57.7573 1843.4 61.7173 1840.32 66.7327L1842.02 67.7793ZM1853.82 56.606C1858.78 53.7984 1864.41 52.384 1870.74 52.384V50.384C1864.1 50.384 1858.12 51.871 1852.84 54.866L1853.82 56.606ZM1870.74 52.384C1877.07 52.384 1882.71 53.7581 1887.67 56.4842L1888.63 54.7318C1883.35 51.8259 1877.37 50.384 1870.74 50.384V52.384ZM1887.67 56.4842C1892.63 59.2164 1896.56 62.9757 1899.45 67.7727L1901.16 66.7393C1898.08 61.6376 1893.9 57.6316 1888.63 54.7318L1887.67 56.4842ZM1899.45 67.7793C1902.34 72.4738 1903.79 77.7941 1903.79 83.768H1905.79C1905.79 77.4539 1904.25 71.7662 1901.16 66.7327L1899.45 67.7793ZM1903.79 83.768C1903.79 89.7418 1902.34 95.1078 1899.45 99.8913L1901.16 100.925C1904.25 95.8095 1905.79 90.0822 1905.79 83.768H1903.79ZM1899.45 99.8913C1896.55 104.691 1892.63 108.496 1887.65 111.314L1888.64 113.054C1893.91 110.07 1898.09 106.024 1901.16 100.925L1899.45 99.8913ZM1887.67 111.308C1882.71 114.034 1877.07 115.408 1870.74 115.408V117.408C1877.37 117.408 1883.35 115.966 1888.63 113.06L1887.67 111.308ZM1870.74 99.616C1873.7 99.616 1876.35 98.9867 1878.65 97.6965L1877.67 95.9515C1875.71 97.0506 1873.41 97.616 1870.74 97.616V99.616ZM1878.68 97.6815C1880.97 96.304 1882.73 94.4125 1883.92 92.0232L1882.13 91.1288C1881.11 93.1768 1879.62 94.784 1877.65 95.9665L1878.68 97.6815ZM1883.91 92.0363C1885.19 89.574 1885.82 86.8104 1885.82 83.768H1883.82C1883.82 86.5283 1883.25 88.97 1882.14 91.1157L1883.91 92.0363ZM1885.82 83.768C1885.82 80.7276 1885.19 78.0356 1883.9 75.7274L1882.15 76.7046C1883.25 78.663 1883.82 81.0058 1883.82 83.768H1885.82ZM1883.91 75.7419C1882.63 73.3613 1880.83 71.514 1878.52 70.2235L1877.55 71.9685C1879.51 73.0674 1881.04 74.6334 1882.15 76.6901L1883.91 75.7419ZM1878.57 70.248C1876.33 68.8531 1873.71 68.176 1870.74 68.176V70.176C1873.4 70.176 1875.64 70.7789 1877.51 71.944L1878.57 70.248ZM1870.74 68.176C1867.85 68.176 1865.23 68.8563 1862.93 70.2385L1863.96 71.9535C1865.92 70.7757 1868.17 70.176 1870.74 70.176V68.176ZM1862.95 70.2235C1860.65 71.514 1858.85 73.3613 1857.57 75.7419L1859.33 76.6901C1860.44 74.6334 1861.97 73.0674 1863.93 71.9685L1862.95 70.2235ZM1857.57 75.7419C1856.29 78.127 1855.66 80.8544 1855.66 83.896H1857.66C1857.66 81.1349 1858.23 78.7423 1859.33 76.6901L1857.57 75.7419ZM1855.66 83.896C1855.66 86.8583 1856.29 89.5782 1857.56 92.0363L1859.34 91.1157C1858.22 88.9658 1857.66 86.5657 1857.66 83.896H1855.66ZM1857.57 92.0501C1858.85 94.425 1860.64 96.3077 1862.93 97.6815L1863.96 95.9665C1861.98 94.7803 1860.44 93.1643 1859.33 91.1019L1857.57 92.0501ZM1862.95 97.6965C1865.25 98.9842 1867.86 99.616 1870.74 99.616V97.616C1868.16 97.616 1865.9 97.0531 1863.93 95.9515L1862.95 97.6965ZM1914.54 115H1913.54V116H1914.54V115ZM1914.54 52.792V51.792H1913.54V52.792H1914.54ZM1934.12 52.792H1935.12V51.792H1934.12V52.792ZM1934.12 115V116H1935.12V115H1934.12ZM1934.12 80.824L1933.51 81.612L1935.12 82.8742V80.824H1934.12ZM1925.93 74.424L1924.95 74.2059L1924.82 74.8228L1925.31 75.212L1925.93 74.424ZM1934.12 57.528L1934.84 58.2196L1934.84 58.2196L1934.12 57.528ZM1957.93 52.92L1957.54 53.841L1957.56 53.8498L1957.58 53.8577L1957.93 52.92ZM1963.95 57.016L1964.73 57.6365L1965.26 56.9712L1964.68 56.3433L1963.95 57.016ZM1952.3 71.736L1951.56 72.4087L1952.35 73.2807L1953.08 72.3565L1952.3 71.736ZM1949.1 69.56L1948.73 70.4885L1948.73 70.4885L1949.1 69.56ZM1936.94 71.864L1936.22 71.1721L1936.21 71.1728L1936.94 71.864ZM1915.54 115V52.792H1913.54V115H1915.54ZM1914.54 53.792H1934.12V51.792H1914.54V53.792ZM1933.12 52.792V115H1935.12V52.792H1933.12ZM1934.12 114H1914.54V116H1934.12V114ZM1934.74 80.036L1926.54 73.636L1925.31 75.212L1933.51 81.612L1934.74 80.036ZM1926.9 74.6421C1928.5 67.5084 1931.17 62.0611 1934.84 58.2196L1933.4 56.8364C1929.4 61.0162 1926.6 66.833 1924.95 74.2059L1926.9 74.6421ZM1934.84 58.2196C1938.45 54.4495 1943.5 52.512 1950.12 52.512V50.512C1943.09 50.512 1937.47 52.5851 1933.4 56.8364L1934.84 58.2196ZM1950.12 52.512C1953 52.512 1955.47 52.9653 1957.54 53.841L1958.32 51.999C1955.95 50.9973 1953.21 50.512 1950.12 50.512V52.512ZM1957.58 53.8577C1959.73 54.6536 1961.6 55.9259 1963.21 57.6887L1964.68 56.3433C1962.87 54.3515 1960.74 52.8931 1958.28 51.9822L1957.58 53.8577ZM1963.16 56.3955L1951.51 71.1155L1953.08 72.3565L1964.73 57.6365L1963.16 56.3955ZM1953.04 71.0633C1952.07 70.0031 1950.88 69.1948 1949.47 68.6315L1948.73 70.4885C1949.88 70.9492 1950.81 71.5916 1951.56 72.4087L1953.04 71.0633ZM1949.47 68.6315C1948.05 68.0647 1946.47 67.792 1944.75 67.792V69.792C1946.26 69.792 1947.58 70.0313 1948.73 70.4885L1949.47 68.6315ZM1944.75 67.792C1941.27 67.792 1938.39 68.8985 1936.22 71.1721L1937.66 72.5559C1939.41 70.7335 1941.73 69.792 1944.75 69.792V67.792ZM1936.21 71.1728C1934.09 73.3938 1933.12 76.6771 1933.12 80.824H1935.12C1935.12 76.9496 1936.03 74.2595 1937.66 72.5552L1936.21 71.1728ZM2008.97 115L2008.14 115.559L2008.44 116H2008.97V115ZM1987.21 82.744L1986.4 82.1585L1985.99 82.7245L1986.38 83.3032L1987.21 82.744ZM2008.84 52.792V51.792H2008.33L2008.03 52.2065L2008.84 52.792ZM2030.73 52.792L2031.52 53.4049L2032.77 51.792H2030.73V52.792ZM2004.62 86.456L2003.62 86.3769L2003.36 89.7142L2005.41 87.0689L2004.62 86.456ZM2005.26 78.392L2006.07 77.802L2004.47 75.6249L2004.26 78.3129L2005.26 78.392ZM2032.01 115V116H2033.98L2032.82 114.41L2032.01 115ZM1969.16 115H1968.16V116H1969.16V115ZM1969.16 22.072V21.072H1968.16V22.072H1969.16ZM1988.75 22.072H1989.75V21.072H1988.75V22.072ZM1988.75 115V116H1989.75V115H1988.75ZM2009.8 114.441L1988.04 82.1848L1986.38 83.3032L2008.14 115.559L2009.8 114.441ZM1988.02 83.3295L2009.65 53.3775L2008.03 52.2065L1986.4 82.1585L1988.02 83.3295ZM2008.84 53.792H2030.73V51.792H2008.84V53.792ZM2029.94 52.1791L2003.83 85.8431L2005.41 87.0689L2031.52 53.4049L2029.94 52.1791ZM2005.61 86.5351L2006.25 78.4711L2004.26 78.3129L2003.62 86.3769L2005.61 86.5351ZM2004.45 78.982L2031.2 115.59L2032.82 114.41L2006.07 77.802L2004.45 78.982ZM2032.01 114H2008.97V116H2032.01V114ZM1970.16 115V22.072H1968.16V115H1970.16ZM1969.16 23.072H1988.75V21.072H1969.16V23.072ZM1987.75 22.072V115H1989.75V22.072H1987.75ZM1988.75 114H1969.16V116H1988.75V114ZM2047.19 115.128L2046.93 116.094L2046.93 116.095L2047.19 115.128ZM2037.33 111.16L2036.82 112.017L2036.83 112.026L2036.85 112.034L2037.33 111.16ZM2029.65 105.016L2028.94 104.313L2028.27 104.993L2028.92 105.695L2029.65 105.016ZM2040.79 93.752L2041.52 93.0737L2040.81 92.3045L2040.08 93.0489L2040.79 93.752ZM2048.08 99L2047.67 99.9104L2047.68 99.9156L2047.69 99.9206L2048.08 99ZM2062.55 99.768L2062.08 98.8856L2062.06 98.8925L2062.05 98.8998L2062.55 99.768ZM2062.16 93.496L2061.66 94.3579L2061.69 94.3752L2061.72 94.3904L2062.16 93.496ZM2056.53 91.32L2056.25 92.2788L2056.26 92.2837L2056.28 92.288L2056.53 91.32ZM2041.94 85.944L2042.45 85.0837L2042.45 85.0837L2041.94 85.944ZM2036.31 80.312L2035.45 80.8177L2035.45 80.8244L2035.45 80.831L2036.31 80.312ZM2037.2 60.6L2038.02 61.1767L2038.03 61.1655L2037.2 60.6ZM2045.91 53.56L2045.49 52.6496L2045.49 52.6496L2045.91 53.56ZM2073.68 53.816L2073.29 54.737L2073.3 54.7414L2073.32 54.7457L2073.68 53.816ZM2084.69 61.88L2085.4 62.5831L2086.02 61.9558L2085.48 61.2622L2084.69 61.88ZM2073.56 73.144L2072.79 73.7925L2073.5 74.6218L2074.27 73.8471L2073.56 73.144ZM2066.9 68.28L2066.53 69.2108L2066.55 69.215L2066.9 68.28ZM2054.87 67.896L2055.34 68.7765L2055.37 68.7628L2055.39 68.7477L2054.87 67.896ZM2061.01 75.704L2060.76 76.672L2060.76 76.672L2061.01 75.704ZM2068.31 77.88L2068.62 76.9313L2068.62 76.9313L2068.31 77.88ZM2075.6 81.336L2076.14 80.4898L2076.14 80.4898L2075.6 81.336ZM2081.24 87.224L2080.37 87.7297L2080.38 87.7364L2080.38 87.743L2081.24 87.224ZM2076.5 111.16L2075.89 110.371L2075.88 110.376L2076.5 111.16ZM2058.07 115.536C2054.49 115.536 2050.94 115.078 2047.44 114.161L2046.93 116.095C2050.6 117.055 2054.31 117.536 2058.07 117.536V115.536ZM2047.45 114.162C2044.02 113.244 2040.82 111.952 2037.82 110.286L2036.85 112.034C2039.99 113.782 2043.35 115.135 2046.93 116.094L2047.45 114.162ZM2037.85 110.303C2034.93 108.554 2032.45 106.564 2030.39 104.337L2028.92 105.695C2031.12 108.076 2033.76 110.182 2036.82 112.017L2037.85 110.303ZM2030.36 105.719L2041.5 94.4551L2040.08 93.0489L2028.94 104.313L2030.36 105.719ZM2040.05 94.4303C2042.19 96.7494 2044.74 98.5766 2047.67 99.9104L2048.5 98.0896C2045.8 96.8634 2043.48 95.192 2041.52 93.0737L2040.05 94.4303ZM2047.69 99.9206C2050.64 101.172 2053.85 101.792 2057.3 101.792V99.792C2054.09 99.792 2051.16 99.2172 2048.47 98.0794L2047.69 99.9206ZM2057.3 101.792C2059.67 101.792 2061.63 101.445 2063.04 100.636L2062.05 98.8998C2061.08 99.4561 2059.53 99.792 2057.3 99.792V101.792ZM2063.02 100.65C2064.54 99.8384 2065.47 98.6018 2065.47 96.952H2063.47C2063.47 97.6916 2063.11 98.3323 2062.08 98.8856L2063.02 100.65ZM2065.47 96.952C2065.47 96.009 2065.23 95.1393 2064.72 94.3813C2064.22 93.6296 2063.5 93.0449 2062.61 92.6016L2061.72 94.3904C2062.37 94.7151 2062.79 95.0904 2063.06 95.4907C2063.32 95.8847 2063.47 96.359 2063.47 96.952H2065.47ZM2062.67 92.6341C2061.11 91.7187 2059.14 90.9638 2056.78 90.352L2056.28 92.288C2058.53 92.8708 2060.31 93.5666 2061.66 94.3579L2062.67 92.6341ZM2056.82 90.3612C2054.51 89.6789 2052.08 88.9539 2049.52 88.1862L2048.95 90.1018C2051.51 90.8701 2053.94 91.5958 2056.25 92.2788L2056.82 90.3612ZM2049.52 88.1862C2047.04 87.4416 2044.68 86.4077 2042.45 85.0837L2041.43 86.8043C2043.8 88.211 2046.31 89.3104 2048.95 90.1018L2049.52 88.1862ZM2042.45 85.0837C2040.29 83.8058 2038.53 82.0483 2037.16 79.793L2035.45 80.831C2036.99 83.3543 2038.98 85.3515 2041.43 86.8043L2042.45 85.0837ZM2037.17 79.8063C2035.83 77.5254 2035.13 74.5984 2035.13 70.968H2033.13C2033.13 74.8469 2033.88 78.1493 2035.45 80.8177L2037.17 79.8063ZM2035.13 70.968C2035.13 67.1361 2036.11 63.8879 2038.02 61.1767L2036.39 60.0233C2034.2 63.1147 2033.13 66.7786 2033.13 70.968H2035.13ZM2038.03 61.1655C2039.96 58.3491 2042.71 56.1123 2046.32 54.4704L2045.49 52.6496C2041.6 54.421 2038.54 56.8776 2036.38 60.0345L2038.03 61.1655ZM2046.32 54.4704C2049.92 52.8343 2054.17 52 2059.09 52V50C2053.95 50 2049.4 50.8723 2045.49 52.6496L2046.32 54.4704ZM2059.09 52C2064.26 52 2068.99 52.9167 2073.29 54.737L2074.07 52.895C2069.5 50.9606 2064.5 50 2059.09 50V52ZM2073.32 54.7457C2077.69 56.4771 2081.21 59.0623 2083.91 62.4978L2085.48 61.2622C2082.55 57.5297 2078.73 54.7389 2074.05 52.8863L2073.32 54.7457ZM2083.98 61.1769L2072.84 72.4409L2074.27 73.8471L2085.4 62.5831L2083.98 61.1769ZM2074.32 72.4955C2072.26 70.0819 2069.91 68.3515 2067.25 67.345L2066.55 69.215C2068.84 70.0858 2070.93 71.5981 2072.79 73.7925L2074.32 72.4955ZM2067.27 67.3492C2064.77 66.37 2062.3 65.872 2059.86 65.872V67.872C2062.03 67.872 2064.25 68.3126 2066.53 69.2108L2067.27 67.3492ZM2059.86 65.872C2057.57 65.872 2055.69 66.2183 2054.34 67.0443L2055.39 68.7477C2056.27 68.2084 2057.71 67.872 2059.86 67.872V65.872ZM2054.39 67.0155C2053.72 67.381 2053.16 67.866 2052.77 68.4896C2052.38 69.1161 2052.2 69.8262 2052.2 70.584H2054.2C2054.2 70.1471 2054.3 69.8119 2054.47 69.5424C2054.64 69.27 2054.91 69.0084 2055.34 68.7765L2054.39 67.0155ZM2052.2 70.584C2052.2 72.3429 2053.24 73.6559 2054.91 74.5398L2055.85 72.7722C2054.62 72.1201 2054.2 71.3851 2054.2 70.584H2052.2ZM2054.91 74.5398C2056.45 75.3565 2058.41 76.063 2060.76 76.672L2061.26 74.736C2059 74.1503 2057.21 73.4915 2055.85 72.7722L2054.91 74.5398ZM2060.76 76.672C2063.04 77.2629 2065.45 77.9816 2067.99 78.8287L2068.62 76.9313C2066.05 76.0717 2063.59 75.3397 2061.26 74.736L2060.76 76.672ZM2067.99 78.8287C2070.48 79.6564 2072.83 80.7739 2075.07 82.1822L2076.14 80.4898C2073.77 78.9968 2071.26 77.8102 2068.62 76.9313L2067.99 78.8287ZM2075.07 82.1822C2077.23 83.5429 2079 85.3857 2080.37 87.7297L2082.1 86.7183C2080.57 84.1129 2078.58 82.0304 2076.14 80.4898L2075.07 82.1822ZM2080.38 87.743C2081.71 89.9249 2082.41 92.8831 2082.41 96.696H2084.41C2084.41 92.6582 2083.67 89.3017 2082.09 86.705L2080.38 87.743ZM2082.41 96.696C2082.41 102.46 2080.24 106.984 2075.89 110.371L2077.11 111.949C2081.98 108.168 2084.41 103.05 2084.41 96.696H2082.41ZM2075.88 110.376C2071.59 113.779 2065.69 115.536 2058.07 115.536V117.536C2065.98 117.536 2072.37 115.709 2077.12 111.944L2075.88 110.376Z" fill="#444444" mask="url(#path-2-outside-1_26038_2400)"/>
</svg>
